<?xml version="1.0" standalone="no"?>
<!DOCTYPE svg PUBLIC "-//W3C//DTD SVG 1.1//EN" "http://www.w3.org/Graphics/SVG/1.1/DTD/svg11.dtd" >
<svg>
<metadata>
Created by FontForge 20090622 at Wed Jan 20 17:00:03 2016
 By deploy user
Joe Prince &#194;&#169; 2012. Admix Designs.
</metadata>
<defs>
<font id="Venera500" horiz-adv-x="997" >
  <font-face 
    font-family="Venera"
    font-weight="500"
    font-stretch="normal"
    units-per-em="1000"
    panose-1="0 0 0 0 0 0 0 0 0 0"
    ascent="750"
    descent="-250"
    x-height="684"
    cap-height="684"
    bbox="-118 -285 1860 943"
    underline-thickness="50"
    underline-position="-50"
    unicode-range="U+0020-U+2212"
  />
<missing-glyph horiz-adv-x="298" 
 />
    <glyph glyph-name=".notdef" horiz-adv-x="298" 
 />
    <glyph glyph-name=".null" horiz-adv-x="0" 
 />
    <glyph glyph-name="nonmarkingreturn" horiz-adv-x="333" 
 />
    <glyph glyph-name="space" unicode=" " horiz-adv-x="320" 
 />
    <glyph glyph-name="exclam" unicode="!" horiz-adv-x="274" 
d="M177 684l-8 -488h-64l-8 488h80zM180 120v-120h-86v120h86z" />
    <glyph glyph-name="quotedbl" unicode="&#x22;" horiz-adv-x="456" 
d="M161 684v-280h-76v280h76zM371 684v-280h-75v280h75z" />
    <glyph glyph-name="numbersign" unicode="#" horiz-adv-x="801" 
d="M101 432v60h145l28 146h60l-28 -146h248l28 146h60l-28 -146h133v-60h-144l-37 -192h135v-60h-146l-28 -148h-60l28 148h-249l-28 -148h-60l28 148h-132v60h143l37 192h-133zM294 432l-37 -192h249l37 192h-249z" />
    <glyph glyph-name="dollar" unicode="$" horiz-adv-x="941" 
d="M466 798h64v-114h322v-68h-563q-146 0 -146 -104q0 -53 40 -79t136 -34l331 -28q124 -10 187 -54t63 -134q0 -87 -62 -135t-188 -48h-155v-146h-64v146h-378v68h601q169 0 169 113q0 55 -43.5 83.5t-141.5 36.5l-339 28q-232 18 -232 182q0 87 62 130t166 43h171v114z
" />
    <glyph glyph-name="percent" unicode="%" horiz-adv-x="1042" 
d="M800 338q101 0 150.5 -47.5t49.5 -126.5t-49.5 -126.5t-150.5 -47.5t-151 47.5t-50 126.5t50 126.5t151 47.5zM800 40q137 0 137 124t-137 124q-138 0 -138 -124t138 -124zM442 519q0 -79 -49.5 -126.5t-150.5 -47.5t-151 47.5t-50 126.5t50 127t151 48t150.5 -47.5
t49.5 -127.5zM104 519q0 -123 138 -123q137 0 137 123q0 124 -137 124q-138 0 -138 -124zM806 684h82l-652 -684h-82z" />
    <glyph glyph-name="ampersand" unicode="&#x26;" horiz-adv-x="966" 
d="M604 0h-300q-117 0 -178 49t-61 133q0 24 7 48t22.5 48.5t45.5 44t71 28.5q-128 30 -128 158q0 26 6 49t22.5 46.5t42 40.5t67.5 28t96 11h474v-68h-480q-72 0 -110.5 -31t-38.5 -86q0 -56 38.5 -86t110.5 -30h614v-65h-90v-133q0 -84 -58.5 -134.5t-172.5 -50.5z
M762 318h-462q-79 0 -117 -38t-38 -89t38 -87.5t117 -36.5h306q38 0 67.5 9t45.5 22.5t26.5 31.5t13.5 32t3 28v128z" />
    <glyph glyph-name="quotesingle" unicode="'" horiz-adv-x="246" 
d="M161 684v-280h-76v280h76z" />
    <glyph glyph-name="parenleft" unicode="(" horiz-adv-x="291" 
d="M132 332q0 -245 110 -437h-71q-110 192 -110 437q0 244 110 437h71q-110 -193 -110 -437z" />
    <glyph glyph-name="parenright" unicode=")" horiz-adv-x="291" 
d="M160 332q0 243 -111 437h71q111 -194 111 -437t-111 -437h-71q111 194 111 437z" />
    <glyph glyph-name="asterisk" unicode="*" horiz-adv-x="538" 
d="M285 552h-32l-14 163h60zM228 534l-10 -30l-159 37l19 57zM121 351l107 124l26 -19l-85 -140zM284 456l26 19l107 -124l-48 -35zM479 541l-159 -37l-10 30l150 64z" />
    <glyph glyph-name="plus" unicode="+" horiz-adv-x="719" 
d="M668 377v-61h-278v-229h-61v229h-278v61h278v229h61v-229h278z" />
    <glyph glyph-name="comma" unicode="," horiz-adv-x="278" 
d="M196 133l-85 -240h-66l65 240h86z" />
    <glyph glyph-name="hyphen" unicode="-" horiz-adv-x="554" 
d="M469 380v-68h-384v68h384z" />
    <glyph glyph-name="period" unicode="." horiz-adv-x="257" 
d="M172 130v-130h-87v130h87z" />
    <glyph glyph-name="slash" unicode="/" horiz-adv-x="530" 
d="M100 -105h-70l400 874h70z" />
    <glyph glyph-name="zero" unicode="0" horiz-adv-x="1024" 
d="M512 693q232 0 340.5 -82t108.5 -269q0 -188 -108 -269.5t-341 -81.5t-341 81.5t-108 269.5q0 187 108 269t341 82zM512 64q198 0 284 61.5t86 216.5t-86 216t-284 61t-284 -61t-86 -216t86 -216.5t284 -61.5z" />
    <glyph glyph-name="one" unicode="1" horiz-adv-x="437" 
d="M339 684v-684h-77v616h-231v68h308z" />
    <glyph glyph-name="two" unicode="2" horiz-adv-x="911" 
d="M850 70v-70h-790v106q0 32 13 59.5t32.5 48t53.5 39t65 31t77 25.5t80.5 21l84.5 19q9 2 14 3q46 10 72.5 17t64 18t58.5 22.5t43 26.5t31.5 34.5t9.5 43.5q0 44 -35 71.5t-102 27.5h-548v71h547q101 0 160.5 -45t59.5 -123q0 -40 -18 -73t-46 -55.5t-74 -42.5t-90 -32.5
t-107 -27.5q-178 -40 -221 -54q-132 -50 -138 -119v-42h703z" />
    <glyph glyph-name="three" unicode="3" horiz-adv-x="913" 
d="M753 499q0 55 -38 84.5t-111 29.5h-528v71h519q67 0 115 -16t72.5 -42.5t35.5 -55t11 -61.5q0 -124 -128 -158q71 -16 109 -61t38 -109q0 -82 -62.5 -131.5t-177.5 -49.5h-539v70h546q78 0 117 35t39 85q0 49 -36.5 88t-119.5 39h-526v69h515q72 0 110.5 29t38.5 84z" />
    <glyph glyph-name="four" unicode="4" horiz-adv-x="979" 
d="M818 222v-222h-77v220h-489q-60 0 -103.5 15.5t-65 41t-31 51.5t-9.5 54q0 30 12 66l82 236h80l-82 -241q-11 -27 -11 -56q0 -16 5 -30t17.5 -30t41.5 -25.5t71 -9.5h482v392h77v-391h120v-71h-120z" />
    <glyph glyph-name="five" unicode="5" horiz-adv-x="926" 
d="M621 0h-560v71h564q84 0 127 33.5t43 90.5t-42 89t-126 32h-523l-23 24l27 344h715v-72h-646l-17 -228h465q123 0 186.5 -49.5t63.5 -139.5t-64 -142.5t-190 -52.5z" />
    <glyph glyph-name="six" unicode="6" horiz-adv-x="965" 
d="M681 0h-361q-121 0 -177.5 53t-56.5 137v304q0 88 59 139t175 51h529v-70h-533q-47 0 -79.5 -13t-46.5 -33.5t-19 -38t-5 -35.5v-114h515q121 0 179 -53.5t58 -136.5q0 -86 -60 -138t-177 -52zM684 312h-518v-122q0 -51 35.5 -86.5t114.5 -35.5h368q80 0 116.5 35.5
t36.5 86.5q0 50 -36.5 86t-116.5 36z" />
    <glyph glyph-name="seven" unicode="7" horiz-adv-x="850" 
d="M399 93v-93h-84v94q0 49 22.5 92.5t59 75.5t80.5 61.5l88 57t80.5 55.5t59 62.5t22.5 73.5v43h-696v69h782v-101q0 -52 -23 -96.5t-59.5 -77t-80.5 -61.5l-88 -56.5t-80.5 -55.5t-59.5 -64.5t-23 -78.5z" />
    <glyph glyph-name="eight" unicode="8" horiz-adv-x="941" 
d="M84 507q0 33 11 61.5t35.5 56t73.5 43.5t116 16h301q67 0 116 -16t73.5 -43.5t35.5 -56t11 -61.5q0 -126 -131 -159q72 -16 111 -59.5t39 -108.5q0 -83 -62.5 -131.5t-179.5 -48.5h-327q-118 0 -180 48.5t-62 131.5q0 65 38.5 108.5t111.5 59.5q-131 32 -131 159zM301 67
h339q82 0 120 36t38 87t-38.5 88t-119.5 37h-339q-81 0 -119.5 -37t-38.5 -88t38 -87t120 -36zM629 619h-317q-72 0 -111.5 -32.5t-39.5 -87.5q0 -56 40 -87.5t111 -31.5h317q71 0 111 31.5t40 87.5q0 55 -39.5 87.5t-111.5 32.5z" />
    <glyph glyph-name="nine" unicode="9" horiz-adv-x="971" 
d="M650 0h-564v69h568q79 0 115 35t36 86v105h-511q-117 0 -177.5 53t-60.5 142q0 88 60.5 141t177.5 53h356q118 0 176.5 -51t58.5 -139v-304q0 -87 -59 -138.5t-176 -51.5zM654 616h-363q-48 0 -81.5 -13.5t-48 -35.5t-20 -40t-5.5 -37t5.5 -37t20 -40.5t48 -36
t81.5 -13.5h514v131q0 18 -5.5 35.5t-19.5 39t-46.5 34.5t-79.5 13z" />
    <glyph glyph-name="colon" unicode=":" horiz-adv-x="256" 
d="M171 135v-135h-86v135h86zM171 626v-135h-86v135h86z" />
    <glyph glyph-name="semicolon" unicode=";" horiz-adv-x="314" 
d="M217 133l-85 -240h-66l65 240h86zM207 626v-135h-86v135h86z" />
    <glyph glyph-name="less" unicode="&#x3c;" horiz-adv-x="573" 
d="M134 346l356 -172v-71l-448 227v33l448 227v-72z" />
    <glyph glyph-name="equal" unicode="=" horiz-adv-x="787" 
d="M702 230v-65h-617v65h617zM702 529v-65h-617v65h617z" />
    <glyph glyph-name="greater" unicode="&#x3e;" horiz-adv-x="573" 
d="M83 174l356 172l-356 172v72l448 -227v-33l-448 -227v71z" />
    <glyph glyph-name="question" unicode="?" horiz-adv-x="690" 
d="M319 242v-51h-73v55q0 86 70 115l181 72q74 30 74 93q0 36 -27 62.5t-95 26.5h-412v69h407q97 0 150.5 -40t53.5 -115q0 -109 -118 -156l-169 -68q-24 -9 -33 -24t-9 -39zM325 120v-120h-85v120h85z" />
    <glyph glyph-name="at" unicode="@" horiz-adv-x="1053" 
d="M878 -25v-60h-390q-206 0 -314.5 83t-108.5 251v155q0 167 107.5 250.5t315.5 83.5h82q206 0 314.5 -83t108.5 -251v-252h-493q-103 0 -157 31t-54 114v58q0 82 53.5 113t157.5 31h57q103 0 157.5 -30.5t54.5 -113.5v-145h162v197q0 271 -361 271h-82q-361 0 -361 -271
v-161q0 -271 361 -271h390zM562 441h-67q-71 0 -106.5 -18t-35.5 -68v-58q0 -51 35.5 -69t106.5 -18h210v145q0 22 -7.5 38.5t-20 25.5t-32 14t-38.5 6.5t-45 1.5z" />
    <glyph glyph-name="A" unicode="A" 
d="M694 551l270 -551h-84l-99 203h-565l-99 -203h-83l269 551q35 73 80.5 107.5t115.5 34.5q69 0 114 -34.5t81 -107.5zM746 272l-128 262q-21 44 -48.5 66.5t-70.5 22.5t-71 -22.5t-49 -66.5l-128 -262h495z" />
    <glyph glyph-name="B" unicode="B" horiz-adv-x="1010" 
d="M929 509q0 -62 -32.5 -102.5t-92.5 -55.5q73 -17 108 -62.5t35 -106.5q0 -78 -58.5 -130t-178.5 -52h-612v684h599q67 0 114.5 -16t72 -43t35 -55.5t10.5 -60.5zM718 317h-545v-246h545q154 0 154 120q0 51 -37.5 88.5t-116.5 37.5zM173 385h534q71 0 109 29.5t38 84.5
q0 113 -147 113h-534v-227z" />
    <glyph glyph-name="C" unicode="C" horiz-adv-x="969" 
d="M922 684v-76h-536q-135 0 -189 -63.5t-54 -202.5t54 -202.5t189 -63.5h536v-76h-536q-169 0 -245.5 83.5t-76.5 258.5q0 174 76 258t246 84h536z" />
    <glyph glyph-name="D" unicode="D" horiz-adv-x="1038" 
d="M98 0v684h554q170 0 246 -84t76 -258q0 -175 -76.5 -258.5t-245.5 -83.5h-554zM895 342q0 137 -54 201.5t-189 64.5h-477v-532h477q135 0 189 64t54 202z" />
    <glyph glyph-name="E" unicode="E" horiz-adv-x="987" 
d="M923 610h-537q-125 0 -182 -57t-61 -176h763v-70h-763q5 -120 61.5 -176.5t181.5 -56.5h537v-74h-537q-170 0 -246 83.5t-76 258.5q0 174 76 258t246 84h537v-74z" />
    <glyph glyph-name="F" unicode="F" horiz-adv-x="950" 
d="M906 608h-454q-161 0 -223 -49t-62 -183v-39h712v-69h-712v-268h-77v376q0 170 83.5 239t278.5 69h454v-76z" />
    <glyph glyph-name="G" unicode="G" horiz-adv-x="1001" 
d="M848 341h78v-341h-540q-170 0 -246 84t-76 259q0 174 76 257.5t246 83.5h533v-76h-533q-135 0 -189 -63t-54 -202q0 -140 54 -203.5t189 -63.5h462v265z" />
    <glyph glyph-name="H" unicode="H" horiz-adv-x="1017" 
d="M919 0h-78v308h-666v-308h-77v684h77v-307h666v307h78v-684z" />
    <glyph glyph-name="I" unicode="I" horiz-adv-x="274" 
d="M98 684h78v-684h-78v684z" />
    <glyph glyph-name="J" unicode="J" horiz-adv-x="763" 
d="M18 0v76h333q131 0 187 44.5t56 149.5v414h77v-414q0 -142 -77 -206t-243 -64h-333z" />
    <glyph glyph-name="K" unicode="K" horiz-adv-x="924" 
d="M912 0h-104l-159 203q-86 109 -174 109h-299v-312h-78v684h78v-303h289q53 0 99 32t77 73l149 198h102l-184 -232q-59 -76 -142 -104q82 -26 151 -110z" />
    <glyph glyph-name="L" unicode="L" horiz-adv-x="876" 
d="M92 684h78v-414q0 -106 55.5 -150t187.5 -44h445v-76h-445q-167 0 -244 64t-77 206v414z" />
    <glyph glyph-name="M" unicode="M" horiz-adv-x="1183" 
d="M561 153l-387 447v-600h-76v684h74q29 0 55 -30l365 -423l364 423q26 30 55 30h74v-684h-76v600l-387 -447h-61z" />
    <glyph glyph-name="N" unicode="N" horiz-adv-x="1073" 
d="M175 606v-606h-77v684h66q32 0 56 -2.5t49.5 -12t43 -17.5t43 -31t42.5 -40.5t49.5 -58l55 -70l67.5 -89.5q137 -183 176 -224q51 -52 104 -59q16 -2 37 -2h11v606h77v-684h-66q-41 0 -70 4t-61 21.5t-53.5 34t-60.5 60.5t-68.5 81l-88.5 115q-145 189 -182 227
q-50 53 -100 61q-16 2 -39 2h-11z" />
    <glyph glyph-name="O" unicode="O" horiz-adv-x="1063" 
d="M532 693q118 0 200.5 -16t145.5 -54.5t93 -108t30 -172.5t-30 -172.5t-93 -108t-145.5 -54.5t-200.5 -16t-201 16t-145.5 54.5t-93 108t-30.5 172.5t30.5 172.5t93 108t145.5 54.5t201 16zM532 64q81 0 137.5 6t107 23.5t81 48.5t47.5 80.5t17 119.5q0 87 -24.5 142.5
t-78 84.5t-119.5 39.5t-168 10.5q-81 0 -137.5 -6t-107.5 -23.5t-81 -48t-47.5 -80t-17.5 -119.5t17.5 -119.5t47.5 -80.5t81 -48.5t107.5 -23.5t137.5 -6z" />
    <glyph glyph-name="P" unicode="P" horiz-adv-x="962" 
d="M98 684h579q117 0 181.5 -61t64.5 -155t-64.5 -155.5t-181.5 -61.5h-502v-251h-77v684zM175 320h505q80 0 121 43.5t41 103.5q0 59 -41.5 103.5t-120.5 44.5h-505v-295z" />
    <glyph glyph-name="Q" unicode="Q" horiz-adv-x="1063" 
d="M876 -161h-101l-65 78q-37 45 -72 59.5t-106 14.5q-118 0 -201 16t-145.5 54.5t-93 108t-30.5 172.5t30.5 172.5t93 108t145.5 54.5t201 16t200.5 -16t145.5 -54.5t93 -108t30 -172.5q0 -160 -74.5 -237.5t-222.5 -99.5q41 -19 87 -71zM532 64q81 0 137.5 6t107 23.5
t81 48.5t47.5 80.5t17 119.5q0 87 -24.5 142.5t-78 84.5t-119.5 39.5t-168 10.5q-81 0 -137.5 -6t-107.5 -23.5t-81 -48t-47.5 -80t-17.5 -119.5t17.5 -119.5t47.5 -80.5t81 -48.5t107.5 -23.5t137.5 -6z" />
    <glyph glyph-name="R" unicode="R" horiz-adv-x="995" 
d="M98 0v684h586q120 0 182.5 -56.5t62.5 -148.5q0 -73 -40.5 -122t-111.5 -65q66 -18 100 -61t34 -104v-127h-80v128q0 58 -39 94t-114 36h-502v-258h-78zM176 327h514q83 0 121.5 42.5t38.5 101.5t-38 101.5t-122 42.5h-514v-288z" />
    <glyph glyph-name="S" unicode="S" horiz-adv-x="946" 
d="M53 70h600q167 0 167 112q0 54 -43 82.5t-139 36.5l-339 28q-232 18 -232 180q0 88 62 131.5t166 43.5h556v-70h-562q-143 0 -143 -103q0 -51 39.5 -77t133.5 -34l330 -28q126 -11 188 -54.5t62 -132.5q0 -88 -62 -136.5t-188 -48.5h-596v70z" />
    <glyph glyph-name="T" unicode="T" horiz-adv-x="841" 
d="M459 0h-77v614h-366v70h809v-70h-366v-614z" />
    <glyph glyph-name="U" unicode="U" horiz-adv-x="1004" 
d="M89 323v361h78v-361q0 -147 71 -202t264 -55q194 0 265 54.5t71 202.5v361h77v-361q0 -181 -93 -256.5t-320 -75.5q-225 0 -319 74.5t-94 257.5z" />
    <glyph glyph-name="V" unicode="V" horiz-adv-x="986" 
d="M868 684h85l-276 -571q-29 -61 -72 -91.5t-111 -30.5q-69 0 -111.5 30t-72.5 92l-277 571h86l268 -549q17 -36 42.5 -53t64.5 -17t63.5 16.5t42.5 53.5z" />
    <glyph glyph-name="W" unicode="W" horiz-adv-x="1428" 
d="M1312 684h82l-248 -563q-57 -130 -183 -130q-125 0 -183 119l-66 134l-66 -134q-58 -119 -183 -119q-126 0 -183 130l-248 563h82l236 -535q21 -49 47.5 -67t65.5 -18q42 0 68.5 18t47.5 60l92 187l-172 355h78l135 -278l135 278h78l-172 -355l92 -187q20 -42 46.5 -60
t69.5 -18q39 0 65 18t48 67z" />
    <glyph glyph-name="X" unicode="X" horiz-adv-x="858" 
d="M845 0h-106l-277 273l-33 36q-22 -26 -32 -36l-278 -273h-105l355 350l-344 334h108l263 -256q17 -15 33 -36q7 9 34 36l261 256h108l-343 -334z" />
    <glyph glyph-name="Y" unicode="Y" horiz-adv-x="903" 
d="M9 684h113l243 -263q68 -73 86 -118q4 11 11 23l12 20t16.5 22t15 17.5t18.5 19.5l14 16l243 263h113l-312 -325q-92 -95 -92 -149v-210h-77v210q0 25 -19 57t-32.5 47.5l-40.5 44.5z" />
    <glyph glyph-name="Z" unicode="Z" horiz-adv-x="898" 
d="M415 367l78 26.5t69 26t64.5 28.5t50.5 29.5t41.5 34.5t23.5 38.5t10 45.5v18h-693v70h774v-72q0 -31 -8 -59t-25 -52t-36 -44t-48.5 -38.5t-55 -32.5t-63.5 -29l-66 -25.5t-69 -24.5q-165 -57 -218 -86q-104 -56 -104 -133v-19h709v-69h-792v71q0 35 11 66.5t28 55.5
t47 46.5t56 38t68 33.5t71.5 29t76.5 27z" />
    <glyph glyph-name="bracketleft" unicode="[" horiz-adv-x="419" 
d="M94 -105v874h276v-61h-208v-752h208v-61h-276z" />
    <glyph glyph-name="backslash" unicode="\" horiz-adv-x="531" 
d="M501 -105h-70l-401 874h70z" />
    <glyph glyph-name="bracketright" unicode="]" horiz-adv-x="419" 
d="M49 769h276v-874h-276v61h208v752h-208v61z" />
    <glyph glyph-name="asciicircum" unicode="^" horiz-adv-x="657" 
d="M326 635l-193 -266h-77l254 357h32l253 -357h-77z" />
    <glyph glyph-name="underscore" unicode="_" horiz-adv-x="876" 
d="M795 -78v-63h-713v63h713z" />
    <glyph glyph-name="grave" unicode="`" horiz-adv-x="500" 
d="M228 932l135 -181h-70l-155 181h90z" />
    <glyph glyph-name="a" unicode="a" 
d="M694 551l270 -551h-84l-99 203h-565l-99 -203h-83l269 551q35 73 80.5 107.5t115.5 34.5q69 0 114 -34.5t81 -107.5zM746 272l-128 262q-21 44 -48.5 66.5t-70.5 22.5t-71 -22.5t-49 -66.5l-128 -262h495z" />
    <glyph glyph-name="b" unicode="b" horiz-adv-x="1010" 
d="M929 509q0 -62 -32.5 -102.5t-92.5 -55.5q73 -17 108 -62.5t35 -106.5q0 -78 -58.5 -130t-178.5 -52h-612v684h599q67 0 114.5 -16t72 -43t35 -55.5t10.5 -60.5zM718 317h-545v-246h545q154 0 154 120q0 51 -37.5 88.5t-116.5 37.5zM173 385h534q71 0 109 29.5t38 84.5
q0 113 -147 113h-534v-227z" />
    <glyph glyph-name="c" unicode="c" horiz-adv-x="969" 
d="M922 684v-76h-536q-135 0 -189 -63.5t-54 -202.5t54 -202.5t189 -63.5h536v-76h-536q-169 0 -245.5 83.5t-76.5 258.5q0 174 76 258t246 84h536z" />
    <glyph glyph-name="d" unicode="d" horiz-adv-x="1038" 
d="M98 0v684h554q170 0 246 -84t76 -258q0 -175 -76.5 -258.5t-245.5 -83.5h-554zM895 342q0 137 -54 201.5t-189 64.5h-477v-532h477q135 0 189 64t54 202z" />
    <glyph glyph-name="e" unicode="e" horiz-adv-x="987" 
d="M923 610h-537q-125 0 -182 -57t-61 -176h763v-70h-763q5 -120 61.5 -176.5t181.5 -56.5h537v-74h-537q-170 0 -246 83.5t-76 258.5q0 174 76 258t246 84h537v-74z" />
    <glyph glyph-name="f" unicode="f" horiz-adv-x="950" 
d="M906 608h-454q-161 0 -223 -49t-62 -183v-39h712v-69h-712v-268h-77v376q0 170 83.5 239t278.5 69h454v-76z" />
    <glyph glyph-name="g" unicode="g" horiz-adv-x="1001" 
d="M848 341h78v-341h-540q-170 0 -246 84t-76 259q0 174 76 257.5t246 83.5h533v-76h-533q-135 0 -189 -63t-54 -202q0 -140 54 -203.5t189 -63.5h462v265z" />
    <glyph glyph-name="h" unicode="h" horiz-adv-x="1017" 
d="M919 0h-78v308h-666v-308h-77v684h77v-307h666v307h78v-684z" />
    <glyph glyph-name="i" unicode="i" horiz-adv-x="274" 
d="M98 684h78v-684h-78v684z" />
    <glyph glyph-name="j" unicode="j" horiz-adv-x="763" 
d="M18 0v76h333q131 0 187 44.5t56 149.5v414h77v-414q0 -142 -77 -206t-243 -64h-333z" />
    <glyph glyph-name="k" unicode="k" horiz-adv-x="924" 
d="M912 0h-104l-159 203q-86 109 -174 109h-299v-312h-78v684h78v-303h289q53 0 99 32t77 73l149 198h102l-184 -232q-59 -76 -142 -104q82 -26 151 -110z" />
    <glyph glyph-name="l" unicode="l" horiz-adv-x="876" 
d="M92 684h78v-414q0 -106 55.5 -150t187.5 -44h445v-76h-445q-167 0 -244 64t-77 206v414z" />
    <glyph glyph-name="m" unicode="m" horiz-adv-x="1183" 
d="M561 153l-387 447v-600h-76v684h74q29 0 55 -30l365 -423l364 423q26 30 55 30h74v-684h-76v600l-387 -447h-61z" />
    <glyph glyph-name="n" unicode="n" horiz-adv-x="1073" 
d="M175 606v-606h-77v684h66q32 0 56 -2.5t49.5 -12t43 -17.5t43 -31t42.5 -40.5t49.5 -58l55 -70l67.5 -89.5q137 -183 176 -224q51 -52 104 -59q16 -2 37 -2h11v606h77v-684h-66q-41 0 -70 4t-61 21.5t-53.5 34t-60.5 60.5t-68.5 81l-88.5 115q-145 189 -182 227
q-50 53 -100 61q-16 2 -39 2h-11z" />
    <glyph glyph-name="o" unicode="o" horiz-adv-x="1063" 
d="M532 693q118 0 200.5 -16t145.5 -54.5t93 -108t30 -172.5t-30 -172.5t-93 -108t-145.5 -54.5t-200.5 -16t-201 16t-145.5 54.5t-93 108t-30.5 172.5t30.5 172.5t93 108t145.5 54.5t201 16zM532 64q81 0 137.5 6t107 23.5t81 48.5t47.5 80.5t17 119.5q0 87 -24.5 142.5
t-78 84.5t-119.5 39.5t-168 10.5q-81 0 -137.5 -6t-107.5 -23.5t-81 -48t-47.5 -80t-17.5 -119.5t17.5 -119.5t47.5 -80.5t81 -48.5t107.5 -23.5t137.5 -6z" />
    <glyph glyph-name="p" unicode="p" horiz-adv-x="962" 
d="M98 684h579q117 0 181.5 -61t64.5 -155t-64.5 -155.5t-181.5 -61.5h-502v-251h-77v684zM175 320h505q80 0 121 43.5t41 103.5q0 59 -41.5 103.5t-120.5 44.5h-505v-295z" />
    <glyph glyph-name="q" unicode="q" horiz-adv-x="1063" 
d="M876 -161h-101l-65 78q-37 45 -72 59.5t-106 14.5q-118 0 -201 16t-145.5 54.5t-93 108t-30.5 172.5t30.5 172.5t93 108t145.5 54.5t201 16t200.5 -16t145.5 -54.5t93 -108t30 -172.5q0 -160 -74.5 -237.5t-222.5 -99.5q41 -19 87 -71zM532 64q81 0 137.5 6t107 23.5
t81 48.5t47.5 80.5t17 119.5q0 87 -24.5 142.5t-78 84.5t-119.5 39.5t-168 10.5q-81 0 -137.5 -6t-107.5 -23.5t-81 -48t-47.5 -80t-17.5 -119.5t17.5 -119.5t47.5 -80.5t81 -48.5t107.5 -23.5t137.5 -6z" />
    <glyph glyph-name="r" unicode="r" horiz-adv-x="995" 
d="M98 0v684h586q120 0 182.5 -56.5t62.5 -148.5q0 -73 -40.5 -122t-111.5 -65q66 -18 100 -61t34 -104v-127h-80v128q0 58 -39 94t-114 36h-502v-258h-78zM176 327h514q83 0 121.5 42.5t38.5 101.5t-38 101.5t-122 42.5h-514v-288z" />
    <glyph glyph-name="s" unicode="s" horiz-adv-x="946" 
d="M53 70h600q167 0 167 112q0 54 -43 82.5t-139 36.5l-339 28q-232 18 -232 180q0 88 62 131.5t166 43.5h556v-70h-562q-143 0 -143 -103q0 -51 39.5 -77t133.5 -34l330 -28q126 -11 188 -54.5t62 -132.5q0 -88 -62 -136.5t-188 -48.5h-596v70z" />
    <glyph glyph-name="t" unicode="t" horiz-adv-x="841" 
d="M459 0h-77v614h-366v70h809v-70h-366v-614z" />
    <glyph glyph-name="u" unicode="u" horiz-adv-x="1004" 
d="M89 323v361h78v-361q0 -147 71 -202t264 -55q194 0 265 54.5t71 202.5v361h77v-361q0 -181 -93 -256.5t-320 -75.5q-225 0 -319 74.5t-94 257.5z" />
    <glyph glyph-name="v" unicode="v" horiz-adv-x="986" 
d="M868 684h85l-276 -571q-29 -61 -72 -91.5t-111 -30.5q-69 0 -111.5 30t-72.5 92l-277 571h86l268 -549q17 -36 42.5 -53t64.5 -17t63.5 16.5t42.5 53.5z" />
    <glyph glyph-name="w" unicode="w" horiz-adv-x="1428" 
d="M1312 684h82l-248 -563q-57 -130 -183 -130q-125 0 -183 119l-66 134l-66 -134q-58 -119 -183 -119q-126 0 -183 130l-248 563h82l236 -535q21 -49 47.5 -67t65.5 -18q42 0 68.5 18t47.5 60l92 187l-172 355h78l135 -278l135 278h78l-172 -355l92 -187q20 -42 46.5 -60
t69.5 -18q39 0 65 18t48 67z" />
    <glyph glyph-name="x" unicode="x" horiz-adv-x="858" 
d="M845 0h-106l-277 273l-33 36q-22 -26 -32 -36l-278 -273h-105l355 350l-344 334h108l263 -256q17 -15 33 -36q7 9 34 36l261 256h108l-343 -334z" />
    <glyph glyph-name="y" unicode="y" horiz-adv-x="903" 
d="M9 684h113l243 -263q68 -73 86 -118q4 11 11 23l12 20t16.5 22t15 17.5t18.5 19.5l14 16l243 263h113l-312 -325q-92 -95 -92 -149v-210h-77v210q0 25 -19 57t-32.5 47.5l-40.5 44.5z" />
    <glyph glyph-name="z" unicode="z" horiz-adv-x="898" 
d="M415 367l78 26.5t69 26t64.5 28.5t50.5 29.5t41.5 34.5t23.5 38.5t10 45.5v18h-693v70h774v-72q0 -31 -8 -59t-25 -52t-36 -44t-48.5 -38.5t-55 -32.5t-63.5 -29l-66 -25.5t-69 -24.5q-165 -57 -218 -86q-104 -56 -104 -133v-19h709v-69h-792v71q0 35 11 66.5t28 55.5
t47 46.5t56 38t68 33.5t71.5 29t76.5 27z" />
    <glyph glyph-name="braceleft" unicode="{" horiz-adv-x="429" 
d="M149 496v178q0 43 26.5 69t68.5 26h136v-62h-117q-21 0 -33.5 -12t-12.5 -33v-178q0 -105 -94 -152q94 -49 94 -153v-177q0 -21 12.5 -33.5t33.5 -12.5h117v-61h-136q-42 0 -68.5 26t-26.5 69v178q0 54 -33 90t-88 47v53q55 11 88 47.5t33 90.5z" />
    <glyph glyph-name="bar" unicode="|" horiz-adv-x="256" 
d="M94 769h68v-874h-68v874z" />
    <glyph glyph-name="braceright" unicode="}" horiz-adv-x="429" 
d="M280 674v-178q0 -54 33 -90.5t88 -47.5v-53q-55 -11 -88 -47t-33 -90v-178q0 -43 -26.5 -69t-68.5 -26h-136v61h117q21 0 33.5 12.5t12.5 33.5v177q0 105 94 153q-94 46 -94 152v178q0 21 -12.5 33t-33.5 12h-117v62h136q42 0 68.5 -26t26.5 -69z" />
    <glyph glyph-name="asciitilde" unicode="~" horiz-adv-x="800" 
d="M549 247q-43 0 -85.5 19.5t-71.5 43t-67 43t-73 19.5q-90 0 -111 -115h-64q5 32 16 61t30.5 58.5t52.5 47.5t75 18t84.5 -19.5t71.5 -43.5t67.5 -43.5t73.5 -19.5q91 0 111 115h64q-5 -29 -14.5 -56.5t-28.5 -58.5t-53 -50t-78 -19z" />
    <glyph glyph-name="exclamdown" unicode="&#xa1;" horiz-adv-x="274" 
d="M169 487l8 -487h-80l8 487h64zM180 684v-121h-86v121h86z" />
    <glyph glyph-name="cent" unicode="&#xa2;" horiz-adv-x="742" 
d="M488 67v-152h-63v152h-122q-138 0 -197.5 64t-59.5 201q0 139 60 203t197 64h122v127h63v-127h188v-70h-373q-104 0 -144 -46.5t-40 -150.5t40 -149.5t144 -45.5h373v-70h-188z" />
    <glyph glyph-name="sterling" unicode="&#xa3;" horiz-adv-x="895" 
d="M852 68v-68h-802v56l157 11v211h-140v64h140v65q0 148 74 212.5t242 64.5h276v-71h-276q-133 0 -187.5 -47t-54.5 -159v-65h343v-64h-343v-210h571z" />
    <glyph glyph-name="currency" unicode="&#xa4;" horiz-adv-x="871" 
d="M218 138l-107 -108l-48 48l108 109q-47 61 -47 154q0 92 47 153l-108 110l48 48l108 -110q79 61 217 61q137 0 216 -61l109 110l47 -48l-108 -110q47 -61 47 -153t-47 -154l108 -109l-47 -48l-108 109q-79 -61 -217 -61q-140 0 -218 60zM436 540q-114 0 -176.5 -51
t-62.5 -148q0 -98 62.5 -149t176.5 -51q113 0 175.5 51t62.5 149q0 97 -62.5 148t-175.5 51z" />
    <glyph glyph-name="yen" unicode="&#xa5;" horiz-adv-x="883" 
d="M763 187v-56h-285v-131h-72v131h-285v56h285v33q0 49 -52 111h-233v56h185l-32 36l-240 261h105l224 -253q62 -68 79 -118q14 45 78 118l224 253h105l-240 -261l-33 -36h186v-56h-233q-51 -60 -51 -111v-33h285z" />
    <glyph glyph-name="brokenbar" unicode="&#xa6;" horiz-adv-x="260" 
d="M96 769h68v-365h-68v365zM96 288h68v-393h-68v393z" />
    <glyph glyph-name="section" unicode="&#xa7;" horiz-adv-x="823" 
d="M254 684h484v-60h-490q-44 0 -67 -18.5t-23 -51.5q0 -65 95 -71l344 -22q84 -5 127 -38.5t43 -91.5q0 -71 -65 -111q33 -32 33 -86q0 -66 -43 -100t-119 -34h-496v61h502q44 0 67 19t23 52q0 32 -22.5 48t-72.5 20l-344 23q-170 11 -170 129q0 70 66 111q-34 31 -34 88
q0 66 43 99.5t119 33.5zM127 365q0 -72 107 -79l350 -23q41 -3 70 -16q46 27 46 72q0 73 -107 80l-350 23q-43 3 -70 15q-46 -27 -46 -72z" />
    <glyph glyph-name="dieresis" unicode="&#xa8;" horiz-adv-x="613" 
d="M219 893v-129h-78v129h78zM473 893v-129h-77v129h77z" />
    <glyph glyph-name="copyright" unicode="&#xa9;" horiz-adv-x="1094" 
d="M736 213v-47h-267q-90 0 -129.5 42t-39.5 134q0 91 39.5 133.5t129.5 42.5h267v-47h-267q-67 0 -93.5 -30t-26.5 -99t26.5 -99t93.5 -30h267zM547 719q250 0 368 -90.5t118 -286.5t-118 -286.5t-368 -90.5t-368 90.5t-118 286.5t118 286.5t368 90.5zM547 12q226 0 329 75
t103 255t-103 255t-329 75t-329 -75t-103 -255t103 -255t329 -75z" />
    <glyph glyph-name="guillemotleft" unicode="&#xab;" horiz-adv-x="879" 
d="M161 346l279 -150v-79l-403 229l403 230v-80zM513 346l279 -150v-79l-403 229l403 230v-80z" />
    <glyph glyph-name="uni00AD" unicode="&#xad;" horiz-adv-x="554" 
d="M469 380v-68h-384v68h384z" />
    <glyph glyph-name="registered" unicode="&#xae;" horiz-adv-x="1094" 
d="M547 719q250 0 368 -90.5t118 -286.5t-118 -286.5t-368 -90.5t-368 90.5t-118 286.5t118 286.5t368 90.5zM547 12q226 0 329 75t103 255t-103 255t-329 75t-329 -75t-103 -255t103 -255t329 -75zM343 518h297q59 0 93.5 -29t34.5 -78q0 -73 -70 -94q61 -21 61 -83v-66
h-49v67q0 27 -18.5 43.5t-55.5 16.5h-245v-127h-48v350zM391 339h249q42 0 61 20.5t19 47.5t-19 47t-61 20h-249v-135z" />
    <glyph glyph-name="degree" unicode="&#xb0;" horiz-adv-x="472" 
d="M236 370q-71 0 -121 50t-50 121t50.5 121t120.5 50q71 0 121 -50t50 -121t-50 -121t-121 -50zM236 660q-50 0 -84.5 -35t-34.5 -84q0 -50 35 -85t84 -35q50 0 85 35.5t35 84.5t-35 84t-85 35z" />
    <glyph glyph-name="plusminus" unicode="&#xb1;" horiz-adv-x="767" 
d="M692 414v-61h-278v-204h-61v204h-278v61h278v204h61v-204h278zM692 61v-61h-617v61h617z" />
    <glyph glyph-name="acute" unicode="&#xb4;" horiz-adv-x="545" 
d="M148 751l135 181h90l-155 -181h-70z" />
    <glyph glyph-name="paragraph" unicode="&#xb6;" horiz-adv-x="868" 
d="M770 684v-684h-74v618h-118v-618h-74v246h-202q-126 0 -193 60.5t-67 158.5t67 158.5t193 60.5h468zM504 312v306h-206q-85 0 -132 -43.5t-47 -109.5t46.5 -109.5t132.5 -43.5h206z" />
    <glyph glyph-name="periodcentered" unicode="&#xb7;" horiz-adv-x="257" 
d="M172 431v-131h-87v131h87z" />
    <glyph glyph-name="cedilla" unicode="&#xb8;" horiz-adv-x="444" 
d="M77 -228h131q92 0 92 61q0 58 -89 58h-94l40 134h64l-29 -82h34q69 0 106.5 -30.5t37.5 -82.5q0 -58 -46.5 -86.5t-118.5 -28.5h-142z" />
    <glyph glyph-name="guillemotright" unicode="&#xbb;" horiz-adv-x="879" 
d="M439 196l279 150l-279 150v80l403 -230l-403 -229v79zM87 196l279 150l-279 150v80l403 -230l-403 -229v79z" />
    <glyph glyph-name="questiondown" unicode="&#xbf;" horiz-adv-x="691" 
d="M371 442v50h73v-55q0 -42 -14.5 -69.5t-55.5 -44.5l-180 -73q-74 -30 -74 -93q0 -35 26.5 -61.5t94.5 -26.5h413v-69h-407q-97 0 -150.5 40t-53.5 115q0 108 118 156l169 68q41 17 41 63zM366 563v121h84v-121h-84z" />
    <glyph glyph-name="Agrave" unicode="&#xc0;" 
d="M694 551l270 -551h-84l-99 203h-565l-99 -203h-83l269 551q35 73 80.5 107.5t115.5 34.5t115 -34.5t80 -107.5zM746 272l-128 262q-21 44 -48.5 66.5t-70.5 22.5t-71 -22.5t-49 -66.5l-128 -262h495zM426 932l135 -181h-70l-155 181h90z" />
    <glyph glyph-name="Aacute" unicode="&#xc1;" 
d="M694 551l270 -551h-84l-99 203h-565l-99 -203h-83l269 551q35 73 80.5 107.5t115.5 34.5t115 -34.5t80 -107.5zM746 272l-128 262q-21 44 -48.5 66.5t-70.5 22.5t-71 -22.5t-49 -66.5l-128 -262h495zM421 751l135 181h90l-155 -181h-70z" />
    <glyph glyph-name="Acircumflex" unicode="&#xc2;" 
d="M694 551l270 -551h-84l-99 203h-565l-99 -203h-83l269 551q35 73 80.5 107.5t115.5 34.5t115 -34.5t80 -107.5zM746 272l-128 262q-21 44 -48.5 66.5t-70.5 22.5t-71 -22.5t-49 -66.5l-128 -262h495zM294 751l161 176h88l161 -176h-75l-130 128l-130 -128h-75z" />
    <glyph glyph-name="Atilde" unicode="&#xc3;" 
d="M694 551l270 -551h-84l-99 203h-565l-99 -203h-83l269 551q35 73 80.5 107.5t115.5 34.5t115 -34.5t80 -107.5zM746 272l-128 262q-21 44 -48.5 66.5t-70.5 22.5t-71 -22.5t-49 -66.5l-128 -262h495zM607 809q65 0 80 93h53q-2 -21 -9 -43.5t-20.5 -50.5t-40.5 -46
t-62 -18q-32 0 -63 15.5t-51.5 34t-48.5 34t-53 15.5q-66 0 -81 -93h-53q2 21 9 44t21 51t41 45.5t62 17.5q32 0 63 -15.5t51.5 -34t48.5 -34t53 -15.5z" />
    <glyph glyph-name="Adieresis" unicode="&#xc4;" 
d="M694 551l270 -551h-84l-99 203h-565l-99 -203h-83l269 551q35 73 80.5 107.5t115.5 34.5t115 -34.5t80 -107.5zM746 272l-128 262q-21 44 -48.5 66.5t-70.5 22.5t-71 -22.5t-49 -66.5l-128 -262h495zM410 893v-129h-77v129h77zM665 893v-129h-78v129h78z" />
    <glyph glyph-name="Aring" unicode="&#xc5;" 
d="M694 551l270 -551h-84l-99 203h-565l-99 -203h-83l269 551q46 96 116 124q-70 37 -70 120q0 61 44 104.5t106 43.5t106 -43.5t44 -104.5q0 -39 -19.5 -71t-51.5 -49q68 -27 116 -124zM746 272l-128 262q-21 44 -48.5 66.5t-70.5 22.5t-71 -22.5t-49 -66.5l-128 -262h495z
M499 694q41 0 70 29t29 70t-29 70t-70 29t-70 -29t-29 -70t29 -70t70 -29z" />
    <glyph glyph-name="AE" unicode="&#xc6;" horiz-adv-x="1457" 
d="M101 0h-84l323 553q40 68 88.5 99.5t117.5 31.5h849v-71h-708q30 -21 47 -70l58 -166h580v-67h-558l83 -240h498v-70h-557l-69 198h-552zM411 528l-154 -263h490l-87 256q-33 96 -119 96q-42 0 -72 -21t-58 -68z" />
    <glyph glyph-name="Ccedilla" unicode="&#xc7;" horiz-adv-x="969" 
d="M442 -228h131q92 0 92 61q0 58 -89 58h-94l32 109h-128q-169 0 -245.5 83.5t-76.5 258.5q0 174 76 258t246 84h536v-76h-502q-160 0 -218.5 -59t-58.5 -206q0 -149 58.5 -208t218.5 -59h502v-76h-345l-20 -57h34q69 0 106.5 -30.5t37.5 -82.5q0 -58 -46.5 -86.5
t-118.5 -28.5h-142z" />
    <glyph glyph-name="Egrave" unicode="&#xc8;" horiz-adv-x="987" 
d="M482 932l135 -181h-70l-155 181h90zM923 610h-537q-125 0 -182 -57t-61 -176h763v-70h-763q5 -120 61.5 -176.5t181.5 -56.5h537v-74h-537q-170 0 -246 83.5t-76 258.5q0 174 76 258t246 84h537v-74z" />
    <glyph glyph-name="Eacute" unicode="&#xc9;" horiz-adv-x="987" 
d="M477 751l134 181h90l-154 -181h-70zM923 610h-537q-125 0 -182 -57t-61 -176h763v-70h-763q5 -120 61.5 -176.5t181.5 -56.5h537v-74h-537q-170 0 -246 83.5t-76 258.5q0 174 76 258t246 84h537v-74z" />
    <glyph glyph-name="Ecircumflex" unicode="&#xca;" horiz-adv-x="987" 
d="M923 610h-537q-125 0 -182 -57t-61 -176h763v-70h-763q5 -120 61.5 -176.5t181.5 -56.5h537v-74h-537q-170 0 -246 83.5t-76 258.5q0 174 76 258t246 84h537v-74zM343 751l161 176h88l161 -176h-75l-130 128l-130 -128h-75z" />
    <glyph glyph-name="Edieresis" unicode="&#xcb;" horiz-adv-x="987" 
d="M458 893v-129h-78v129h78zM712 893v-129h-77v129h77zM923 610h-537q-125 0 -182 -57t-61 -176h763v-70h-763q5 -120 61.5 -176.5t181.5 -56.5h537v-74h-537q-170 0 -246 83.5t-76 258.5q0 174 76 258t246 84h537v-74z" />
    <glyph glyph-name="Igrave" unicode="&#xcc;" horiz-adv-x="274" 
d="M98 684h78v-684h-78v684zM71 932l134 -181h-70l-154 181h90z" />
    <glyph glyph-name="Iacute" unicode="&#xcd;" horiz-adv-x="274" 
d="M98 684h78v-684h-78v684zM67 751l135 181h90l-155 -181h-70z" />
    <glyph glyph-name="Icircumflex" unicode="&#xce;" horiz-adv-x="274" 
d="M98 684h78v-684h-78v684zM-68 751l161 176h88l161 -176h-75l-130 128l-130 -128h-75z" />
    <glyph glyph-name="Idieresis" unicode="&#xcf;" horiz-adv-x="274" 
d="M98 684h78v-684h-78v684zM48 893v-129h-77v129h77zM303 893v-129h-78v129h78z" />
    <glyph glyph-name="Eth" unicode="&#xd0;" horiz-adv-x="1062" 
d="M122 0v313h-118v67h118v304h554q170 0 246 -84t76 -258q0 -175 -76.5 -258.5t-245.5 -83.5h-554zM919 342q0 137 -54 201.5t-189 64.5h-477v-228h409v-67h-409v-237h477q135 0 189 64t54 202z" />
    <glyph glyph-name="Ntilde" unicode="&#xd1;" horiz-adv-x="1073" 
d="M175 606v-606h-77v684h66q32 0 56 -2.5t49.5 -12t43 -17.5t43 -31t42.5 -40.5t49.5 -58l55 -70l67.5 -89.5q137 -183 176 -224q51 -52 104 -59q16 -2 37 -2h11v606h77v-684h-66q-41 0 -70 4t-61 21.5t-53.5 34t-60.5 60.5t-68.5 81l-88.5 115q-145 189 -182 227
q-50 53 -100 61q-16 2 -39 2h-11zM659 809q65 0 80 93h53q-2 -21 -9 -43.5t-20.5 -50.5t-40.5 -46t-62 -18q-32 0 -63 15.5t-51.5 34t-48.5 34t-53 15.5q-66 0 -81 -93h-53q2 21 9 44t21 51t41 45.5t62 17.5q32 0 63 -15.5t51.5 -34t48.5 -34t53 -15.5z" />
    <glyph glyph-name="Ograve" unicode="&#xd2;" horiz-adv-x="1063" 
d="M532 693q118 0 200.5 -16t145.5 -54.5t93 -108t30 -172.5t-30 -172.5t-93 -108t-145.5 -54.5t-200.5 -16t-201 16t-145.5 54.5t-93 108t-30.5 172.5t30.5 172.5t93 108t145.5 54.5t201 16zM532 64q81 0 137.5 6t107 23.5t81 48.5t47.5 80.5t17 119.5q0 87 -24.5 142.5
t-78 84.5t-119.5 39.5t-168 10.5q-81 0 -137.5 -6t-107.5 -23.5t-81 -48t-47.5 -80t-17.5 -119.5t17.5 -119.5t47.5 -80.5t81 -48.5t107.5 -23.5t137.5 -6zM460 932l135 -181h-70l-155 181h90z" />
    <glyph glyph-name="Oacute" unicode="&#xd3;" horiz-adv-x="1063" 
d="M532 693q118 0 200.5 -16t145.5 -54.5t93 -108t30 -172.5t-30 -172.5t-93 -108t-145.5 -54.5t-200.5 -16t-201 16t-145.5 54.5t-93 108t-30.5 172.5t30.5 172.5t93 108t145.5 54.5t201 16zM532 64q81 0 137.5 6t107 23.5t81 48.5t47.5 80.5t17 119.5q0 87 -24.5 142.5
t-78 84.5t-119.5 39.5t-168 10.5q-81 0 -137.5 -6t-107.5 -23.5t-81 -48t-47.5 -80t-17.5 -119.5t17.5 -119.5t47.5 -80.5t81 -48.5t107.5 -23.5t137.5 -6zM460 751l135 181h90l-155 -181h-70z" />
    <glyph glyph-name="Ocircumflex" unicode="&#xd4;" horiz-adv-x="1063" 
d="M532 693q118 0 200.5 -16t145.5 -54.5t93 -108t30 -172.5t-30 -172.5t-93 -108t-145.5 -54.5t-200.5 -16t-201 16t-145.5 54.5t-93 108t-30.5 172.5t30.5 172.5t93 108t145.5 54.5t201 16zM532 64q81 0 137.5 6t107 23.5t81 48.5t47.5 80.5t17 119.5q0 87 -24.5 142.5
t-78 84.5t-119.5 39.5t-168 10.5q-81 0 -137.5 -6t-107.5 -23.5t-81 -48t-47.5 -80t-17.5 -119.5t17.5 -119.5t47.5 -80.5t81 -48.5t107.5 -23.5t137.5 -6zM327 751l161 176h88l161 -176h-75l-130 128l-130 -128h-75z" />
    <glyph glyph-name="Otilde" unicode="&#xd5;" horiz-adv-x="1063" 
d="M532 693q118 0 200.5 -16t145.5 -54.5t93 -108t30 -172.5t-30 -172.5t-93 -108t-145.5 -54.5t-200.5 -16t-201 16t-145.5 54.5t-93 108t-30.5 172.5t30.5 172.5t93 108t145.5 54.5t201 16zM532 64q81 0 137.5 6t107 23.5t81 48.5t47.5 80.5t17 119.5q0 87 -24.5 142.5
t-78 84.5t-119.5 39.5t-168 10.5q-81 0 -137.5 -6t-107.5 -23.5t-81 -48t-47.5 -80t-17.5 -119.5t17.5 -119.5t47.5 -80.5t81 -48.5t107.5 -23.5t137.5 -6zM630 809q65 0 80 93h53q-2 -21 -9 -43.5t-20.5 -50.5t-40.5 -46t-62 -18q-32 0 -63 15.5t-51.5 34t-48.5 34
t-53 15.5q-66 0 -81 -93h-53q2 21 9 44t21 51t41 45.5t62 17.5q32 0 63 -15.5t51.5 -34t48.5 -34t53 -15.5z" />
    <glyph glyph-name="Odieresis" unicode="&#xd6;" horiz-adv-x="1063" 
d="M532 693q118 0 200.5 -16t145.5 -54.5t93 -108t30 -172.5t-30 -172.5t-93 -108t-145.5 -54.5t-200.5 -16t-201 16t-145.5 54.5t-93 108t-30.5 172.5t30.5 172.5t93 108t145.5 54.5t201 16zM532 64q81 0 137.5 6t107 23.5t81 48.5t47.5 80.5t17 119.5q0 87 -24.5 142.5
t-78 84.5t-119.5 39.5t-168 10.5q-81 0 -137.5 -6t-107.5 -23.5t-81 -48t-47.5 -80t-17.5 -119.5t17.5 -119.5t47.5 -80.5t81 -48.5t107.5 -23.5t137.5 -6zM443 893v-129h-77v129h77zM698 893v-129h-78v129h78z" />
    <glyph glyph-name="multiply" unicode="&#xd7;" horiz-adv-x="695" 
d="M395 346l227 -189l-40 -47l-235 194l-233 -194l-41 47l226 189l-226 189l41 47l233 -195l235 195l40 -47z" />
    <glyph glyph-name="Oslash" unicode="&#xd8;" horiz-adv-x="1065" 
d="M533 693q260 0 364 -84l107 71l21 -31l-99 -66q76 -82 76 -241q0 -103 -30 -172.5t-93 -108t-145.5 -54.5t-200.5 -16q-261 0 -366 83l-105 -70l-21 31l98 65q-76 82 -76 242q0 103 30.5 172.5t93 108t145.5 54.5t201 16zM142 342q0 -134 64 -198l620 419q-84 56 -293 56
q-81 0 -137.5 -6t-107.5 -23.5t-81 -48t-47.5 -80t-17.5 -119.5zM533 64q81 0 137.5 6t107 23.5t81 48.5t47.5 80.5t17 119.5q0 133 -64 197l-620 -419q84 -56 294 -56z" />
    <glyph glyph-name="Ugrave" unicode="&#xd9;" horiz-adv-x="1004" 
d="M441 932l135 -181h-70l-155 181h90zM89 323v361h78v-361q0 -147 71 -202t264 -55q194 0 265 54.5t71 202.5v361h77v-361q0 -181 -93 -256.5t-320 -75.5q-225 0 -319 74.5t-94 257.5z" />
    <glyph glyph-name="Uacute" unicode="&#xda;" horiz-adv-x="1004" 
d="M437 751l135 181h90l-155 -181h-70zM89 323v361h78v-361q0 -147 71 -202t264 -55q194 0 265 54.5t71 202.5v361h77v-361q0 -181 -93 -256.5t-320 -75.5q-225 0 -319 74.5t-94 257.5z" />
    <glyph glyph-name="Ucircumflex" unicode="&#xdb;" horiz-adv-x="1004" 
d="M89 323v361h78v-361q0 -147 71 -202t264 -55q194 0 265 54.5t71 202.5v361h77v-361q0 -181 -93 -256.5t-320 -75.5q-225 0 -319 74.5t-94 257.5zM297 751l161 176h88l161 -176h-75l-130 128l-130 -128h-75z" />
    <glyph glyph-name="Udieresis" unicode="&#xdc;" horiz-adv-x="1004" 
d="M414 893v-129h-78v129h78zM668 893v-129h-77v129h77zM89 323v361h78v-361q0 -147 71 -202t264 -55q194 0 265 54.5t71 202.5v361h77v-361q0 -181 -93 -256.5t-320 -75.5q-225 0 -319 74.5t-94 257.5z" />
    <glyph glyph-name="Yacute" unicode="&#xdd;" horiz-adv-x="903" 
d="M383 751l134 181h90l-154 -181h-70zM9 684h113l243 -263q68 -73 86 -118q4 11 11 23l12 20t16.5 22t15 17.5t18.5 19.5l14 16l243 263h113l-312 -325q-92 -95 -92 -149v-210h-77v210q0 25 -19 57t-32.5 47.5l-40.5 44.5z" />
    <glyph glyph-name="Thorn" unicode="&#xde;" horiz-adv-x="961" 
d="M98 684h77v-122h502q117 0 181.5 -61t64.5 -155t-64.5 -155.5t-181.5 -61.5h-502v-129h-77v684zM175 198h505q80 0 121 43.5t41 103.5q0 59 -41.5 103.5t-120.5 44.5h-505v-295z" />
    <glyph glyph-name="germandbls" unicode="&#xdf;" horiz-adv-x="1907" 
d="M53 70h600q167 0 167 112q0 54 -43 82.5t-139 36.5l-339 28q-232 18 -232 180q0 88 62 131.5t166 43.5h556v-70h-562q-143 0 -143 -103q0 -51 39.5 -77t133.5 -34l330 -28q126 -11 188 -54.5t62 -132.5q0 -88 -62 -136.5t-188 -48.5h-596v70zM1014 70h600q167 0 167 112
q0 54 -43 82.5t-139 36.5l-339 28q-232 18 -232 180q0 88 62 131.5t166 43.5h556v-70h-562q-143 0 -143 -103q0 -51 39.5 -77t133.5 -34l330 -28q126 -11 188 -54.5t62 -132.5q0 -88 -62 -136.5t-188 -48.5h-596v70z" />
    <glyph glyph-name="agrave" unicode="&#xe0;" 
d="M694 551l270 -551h-84l-99 203h-565l-99 -203h-83l269 551q35 73 80.5 107.5t115.5 34.5t115 -34.5t80 -107.5zM746 272l-128 262q-21 44 -48.5 66.5t-70.5 22.5t-71 -22.5t-49 -66.5l-128 -262h495zM426 932l135 -181h-70l-155 181h90z" />
    <glyph glyph-name="aacute" unicode="&#xe1;" 
d="M694 551l270 -551h-84l-99 203h-565l-99 -203h-83l269 551q35 73 80.5 107.5t115.5 34.5t115 -34.5t80 -107.5zM746 272l-128 262q-21 44 -48.5 66.5t-70.5 22.5t-71 -22.5t-49 -66.5l-128 -262h495zM421 751l135 181h90l-155 -181h-70z" />
    <glyph glyph-name="acircumflex" unicode="&#xe2;" 
d="M694 551l270 -551h-84l-99 203h-565l-99 -203h-83l269 551q35 73 80.5 107.5t115.5 34.5t115 -34.5t80 -107.5zM746 272l-128 262q-21 44 -48.5 66.5t-70.5 22.5t-71 -22.5t-49 -66.5l-128 -262h495zM294 751l161 176h88l161 -176h-75l-130 128l-130 -128h-75z" />
    <glyph glyph-name="atilde" unicode="&#xe3;" 
d="M694 551l270 -551h-84l-99 203h-565l-99 -203h-83l269 551q35 73 80.5 107.5t115.5 34.5t115 -34.5t80 -107.5zM746 272l-128 262q-21 44 -48.5 66.5t-70.5 22.5t-71 -22.5t-49 -66.5l-128 -262h495zM607 809q65 0 80 93h53q-2 -21 -9 -43.5t-20.5 -50.5t-40.5 -46
t-62 -18q-32 0 -63 15.5t-51.5 34t-48.5 34t-53 15.5q-66 0 -81 -93h-53q2 21 9 44t21 51t41 45.5t62 17.5q32 0 63 -15.5t51.5 -34t48.5 -34t53 -15.5z" />
    <glyph glyph-name="adieresis" unicode="&#xe4;" 
d="M694 551l270 -551h-84l-99 203h-565l-99 -203h-83l269 551q35 73 80.5 107.5t115.5 34.5t115 -34.5t80 -107.5zM746 272l-128 262q-21 44 -48.5 66.5t-70.5 22.5t-71 -22.5t-49 -66.5l-128 -262h495zM410 893v-129h-77v129h77zM665 893v-129h-78v129h78z" />
    <glyph glyph-name="aring" unicode="&#xe5;" 
d="M694 551l270 -551h-84l-99 203h-565l-99 -203h-83l269 551q46 96 116 124q-70 37 -70 120q0 61 44 104.5t106 43.5t106 -43.5t44 -104.5q0 -39 -19.5 -71t-51.5 -49q68 -27 116 -124zM746 272l-128 262q-21 44 -48.5 66.5t-70.5 22.5t-71 -22.5t-49 -66.5l-128 -262h495z
M499 694q41 0 70 29t29 70t-29 70t-70 29t-70 -29t-29 -70t29 -70t70 -29z" />
    <glyph glyph-name="ae" unicode="&#xe6;" horiz-adv-x="1457" 
d="M101 0h-84l323 553q40 68 88.5 99.5t117.5 31.5h849v-71h-708q30 -21 47 -70l58 -166h580v-67h-558l83 -240h498v-70h-557l-69 198h-552zM411 528l-154 -263h490l-87 256q-33 96 -119 96q-42 0 -72 -21t-58 -68z" />
    <glyph glyph-name="ccedilla" unicode="&#xe7;" horiz-adv-x="969" 
d="M442 -228h131q92 0 92 61q0 58 -89 58h-94l32 109h-128q-169 0 -245.5 83.5t-76.5 258.5q0 174 76 258t246 84h536v-76h-502q-160 0 -218.5 -59t-58.5 -206q0 -149 58.5 -208t218.5 -59h502v-76h-345l-20 -57h34q69 0 106.5 -30.5t37.5 -82.5q0 -58 -46.5 -86.5
t-118.5 -28.5h-142z" />
    <glyph glyph-name="egrave" unicode="&#xe8;" horiz-adv-x="987" 
d="M482 932l135 -181h-70l-155 181h90zM923 610h-537q-125 0 -182 -57t-61 -176h763v-70h-763q5 -120 61.5 -176.5t181.5 -56.5h537v-74h-537q-170 0 -246 83.5t-76 258.5q0 174 76 258t246 84h537v-74z" />
    <glyph glyph-name="eacute" unicode="&#xe9;" horiz-adv-x="987" 
d="M477 751l134 181h90l-154 -181h-70zM923 610h-537q-125 0 -182 -57t-61 -176h763v-70h-763q5 -120 61.5 -176.5t181.5 -56.5h537v-74h-537q-170 0 -246 83.5t-76 258.5q0 174 76 258t246 84h537v-74z" />
    <glyph glyph-name="ecircumflex" unicode="&#xea;" horiz-adv-x="987" 
d="M923 610h-537q-125 0 -182 -57t-61 -176h763v-70h-763q5 -120 61.5 -176.5t181.5 -56.5h537v-74h-537q-170 0 -246 83.5t-76 258.5q0 174 76 258t246 84h537v-74zM343 751l161 176h88l161 -176h-75l-130 128l-130 -128h-75z" />
    <glyph glyph-name="edieresis" unicode="&#xeb;" horiz-adv-x="987" 
d="M458 893v-129h-78v129h78zM712 893v-129h-77v129h77zM923 610h-537q-125 0 -182 -57t-61 -176h763v-70h-763q5 -120 61.5 -176.5t181.5 -56.5h537v-74h-537q-170 0 -246 83.5t-76 258.5q0 174 76 258t246 84h537v-74z" />
    <glyph glyph-name="igrave" unicode="&#xec;" horiz-adv-x="274" 
d="M98 684h78v-684h-78v684zM71 932l134 -181h-70l-154 181h90z" />
    <glyph glyph-name="iacute" unicode="&#xed;" horiz-adv-x="274" 
d="M98 684h78v-684h-78v684zM67 751l135 181h90l-155 -181h-70z" />
    <glyph glyph-name="icircumflex" unicode="&#xee;" horiz-adv-x="274" 
d="M98 684h78v-684h-78v684zM-68 751l161 176h88l161 -176h-75l-130 128l-130 -128h-75z" />
    <glyph glyph-name="idieresis" unicode="&#xef;" horiz-adv-x="274" 
d="M98 684h78v-684h-78v684zM48 893v-129h-77v129h77zM303 893v-129h-78v129h78z" />
    <glyph glyph-name="eth" unicode="&#xf0;" horiz-adv-x="1084" 
d="M144 0v313h-118v67h118v304h554q170 0 246 -84t76 -258q0 -175 -76.5 -258.5t-245.5 -83.5h-554zM941 342q0 137 -54 201.5t-189 64.5h-477v-228h409v-67h-409v-237h477q135 0 189 64t54 202z" />
    <glyph glyph-name="ntilde" unicode="&#xf1;" horiz-adv-x="1073" 
d="M175 606v-606h-77v684h66q32 0 56 -2.5t49.5 -12t43 -17.5t43 -31t42.5 -40.5t49.5 -58l55 -70l67.5 -89.5q137 -183 176 -224q51 -52 104 -59q16 -2 37 -2h11v606h77v-684h-66q-41 0 -70 4t-61 21.5t-53.5 34t-60.5 60.5t-68.5 81l-88.5 115q-145 189 -182 227
q-50 53 -100 61q-16 2 -39 2h-11zM659 809q65 0 80 93h53q-2 -21 -9 -43.5t-20.5 -50.5t-40.5 -46t-62 -18q-32 0 -63 15.5t-51.5 34t-48.5 34t-53 15.5q-66 0 -81 -93h-53q2 21 9 44t21 51t41 45.5t62 17.5q32 0 63 -15.5t51.5 -34t48.5 -34t53 -15.5z" />
    <glyph glyph-name="ograve" unicode="&#xf2;" horiz-adv-x="1063" 
d="M532 693q118 0 200.5 -16t145.5 -54.5t93 -108t30 -172.5t-30 -172.5t-93 -108t-145.5 -54.5t-200.5 -16t-201 16t-145.5 54.5t-93 108t-30.5 172.5t30.5 172.5t93 108t145.5 54.5t201 16zM532 64q81 0 137.5 6t107 23.5t81 48.5t47.5 80.5t17 119.5q0 87 -24.5 142.5
t-78 84.5t-119.5 39.5t-168 10.5q-81 0 -137.5 -6t-107.5 -23.5t-81 -48t-47.5 -80t-17.5 -119.5t17.5 -119.5t47.5 -80.5t81 -48.5t107.5 -23.5t137.5 -6zM460 932l135 -181h-70l-155 181h90z" />
    <glyph glyph-name="oacute" unicode="&#xf3;" horiz-adv-x="1063" 
d="M532 693q118 0 200.5 -16t145.5 -54.5t93 -108t30 -172.5t-30 -172.5t-93 -108t-145.5 -54.5t-200.5 -16t-201 16t-145.5 54.5t-93 108t-30.5 172.5t30.5 172.5t93 108t145.5 54.5t201 16zM532 64q81 0 137.5 6t107 23.5t81 48.5t47.5 80.5t17 119.5q0 87 -24.5 142.5
t-78 84.5t-119.5 39.5t-168 10.5q-81 0 -137.5 -6t-107.5 -23.5t-81 -48t-47.5 -80t-17.5 -119.5t17.5 -119.5t47.5 -80.5t81 -48.5t107.5 -23.5t137.5 -6zM460 751l135 181h90l-155 -181h-70z" />
    <glyph glyph-name="ocircumflex" unicode="&#xf4;" horiz-adv-x="1063" 
d="M532 693q118 0 200.5 -16t145.5 -54.5t93 -108t30 -172.5t-30 -172.5t-93 -108t-145.5 -54.5t-200.5 -16t-201 16t-145.5 54.5t-93 108t-30.5 172.5t30.5 172.5t93 108t145.5 54.5t201 16zM532 64q81 0 137.5 6t107 23.5t81 48.5t47.5 80.5t17 119.5q0 87 -24.5 142.5
t-78 84.5t-119.5 39.5t-168 10.5q-81 0 -137.5 -6t-107.5 -23.5t-81 -48t-47.5 -80t-17.5 -119.5t17.5 -119.5t47.5 -80.5t81 -48.5t107.5 -23.5t137.5 -6zM327 751l161 176h88l161 -176h-75l-130 128l-130 -128h-75z" />
    <glyph glyph-name="otilde" unicode="&#xf5;" horiz-adv-x="1063" 
d="M532 693q118 0 200.5 -16t145.5 -54.5t93 -108t30 -172.5t-30 -172.5t-93 -108t-145.5 -54.5t-200.5 -16t-201 16t-145.5 54.5t-93 108t-30.5 172.5t30.5 172.5t93 108t145.5 54.5t201 16zM532 64q81 0 137.5 6t107 23.5t81 48.5t47.5 80.5t17 119.5q0 87 -24.5 142.5
t-78 84.5t-119.5 39.5t-168 10.5q-81 0 -137.5 -6t-107.5 -23.5t-81 -48t-47.5 -80t-17.5 -119.5t17.5 -119.5t47.5 -80.5t81 -48.5t107.5 -23.5t137.5 -6zM630 809q65 0 80 93h53q-2 -21 -9 -43.5t-20.5 -50.5t-40.5 -46t-62 -18q-32 0 -63 15.5t-51.5 34t-48.5 34
t-53 15.5q-66 0 -81 -93h-53q2 21 9 44t21 51t41 45.5t62 17.5q32 0 63 -15.5t51.5 -34t48.5 -34t53 -15.5z" />
    <glyph glyph-name="odieresis" unicode="&#xf6;" horiz-adv-x="1063" 
d="M532 693q118 0 200.5 -16t145.5 -54.5t93 -108t30 -172.5t-30 -172.5t-93 -108t-145.5 -54.5t-200.5 -16t-201 16t-145.5 54.5t-93 108t-30.5 172.5t30.5 172.5t93 108t145.5 54.5t201 16zM532 64q81 0 137.5 6t107 23.5t81 48.5t47.5 80.5t17 119.5q0 87 -24.5 142.5
t-78 84.5t-119.5 39.5t-168 10.5q-81 0 -137.5 -6t-107.5 -23.5t-81 -48t-47.5 -80t-17.5 -119.5t17.5 -119.5t47.5 -80.5t81 -48.5t107.5 -23.5t137.5 -6zM443 893v-129h-77v129h77zM698 893v-129h-78v129h78z" />
    <glyph glyph-name="divide" unicode="&#xf7;" horiz-adv-x="769" 
d="M693 379v-66h-617v66h617zM425 641v-127h-81v127h81zM425 178v-127h-81v127h81z" />
    <glyph glyph-name="oslash" unicode="&#xf8;" horiz-adv-x="1065" 
d="M533 693q260 0 364 -84l107 71l21 -31l-99 -66q76 -82 76 -241q0 -103 -30 -172.5t-93 -108t-145.5 -54.5t-200.5 -16q-261 0 -366 83l-105 -70l-21 31l98 65q-76 82 -76 242q0 103 30.5 172.5t93 108t145.5 54.5t201 16zM142 342q0 -134 64 -198l620 419q-84 56 -293 56
q-81 0 -137.5 -6t-107.5 -23.5t-81 -48t-47.5 -80t-17.5 -119.5zM533 64q81 0 137.5 6t107 23.5t81 48.5t47.5 80.5t17 119.5q0 133 -64 197l-620 -419q84 -56 294 -56z" />
    <glyph glyph-name="ugrave" unicode="&#xf9;" horiz-adv-x="1004" 
d="M441 932l135 -181h-70l-155 181h90zM89 323v361h78v-361q0 -147 71 -202t264 -55q194 0 265 54.5t71 202.5v361h77v-361q0 -181 -93 -256.5t-320 -75.5q-225 0 -319 74.5t-94 257.5z" />
    <glyph glyph-name="uacute" unicode="&#xfa;" horiz-adv-x="1004" 
d="M437 751l135 181h90l-155 -181h-70zM89 323v361h78v-361q0 -147 71 -202t264 -55q194 0 265 54.5t71 202.5v361h77v-361q0 -181 -93 -256.5t-320 -75.5q-225 0 -319 74.5t-94 257.5z" />
    <glyph glyph-name="ucircumflex" unicode="&#xfb;" horiz-adv-x="1004" 
d="M89 323v361h78v-361q0 -147 71 -202t264 -55q194 0 265 54.5t71 202.5v361h77v-361q0 -181 -93 -256.5t-320 -75.5q-225 0 -319 74.5t-94 257.5zM297 751l161 176h88l161 -176h-75l-130 128l-130 -128h-75z" />
    <glyph glyph-name="udieresis" unicode="&#xfc;" horiz-adv-x="1004" 
d="M414 893v-129h-78v129h78zM668 893v-129h-77v129h77zM89 323v361h78v-361q0 -147 71 -202t264 -55q194 0 265 54.5t71 202.5v361h77v-361q0 -181 -93 -256.5t-320 -75.5q-225 0 -319 74.5t-94 257.5z" />
    <glyph glyph-name="yacute" unicode="&#xfd;" horiz-adv-x="903" 
d="M383 751l134 181h90l-154 -181h-70zM9 684h113l243 -263q68 -73 86 -118q4 11 11 23l12 20t16.5 22t15 17.5t18.5 19.5l14 16l243 263h113l-312 -325q-92 -95 -92 -149v-210h-77v210q0 25 -19 57t-32.5 47.5l-40.5 44.5z" />
    <glyph glyph-name="thorn" unicode="&#xfe;" horiz-adv-x="961" 
d="M98 684h77v-122h502q117 0 181.5 -61t64.5 -155t-64.5 -155.5t-181.5 -61.5h-502v-129h-77v684zM175 198h505q80 0 121 43.5t41 103.5q0 59 -41.5 103.5t-120.5 44.5h-505v-295z" />
    <glyph glyph-name="ydieresis" unicode="&#xff;" horiz-adv-x="903" 
d="M366 893v-129h-77v129h77zM621 893v-129h-78v129h78zM9 684h113l243 -263q68 -73 86 -118q4 11 11 23l12 20t16.5 22t15 17.5t18.5 19.5l14 16l243 263h113l-312 -325q-92 -95 -92 -149v-210h-77v210q0 25 -19 57t-32.5 47.5l-40.5 44.5z" />
    <glyph glyph-name="OE" unicode="&#x152;" horiz-adv-x="1805" 
d="M1743 610h-434q-155 0 -231 -52.5t-85 -180.5h726v-70h-726q9 -129 85 -181.5t231 -52.5h434v-73h-434q-149 0 -236 45.5t-120 143.5q-18 -58 -54.5 -97.5t-92.5 -61t-122 -30.5t-156 -9q-118 0 -200 15.5t-144.5 54.5t-92 108.5t-29.5 172.5t29.5 172.5t92 108.5
t144.5 54.5t200 15.5q183 0 286.5 -43.5t138.5 -155.5q34 98 120.5 144t235.5 46h434v-74zM528 64q81 0 137 6t106.5 23.5t80 48.5t46.5 80.5t17 119.5q0 87 -24 142.5t-77 84.5t-118.5 39.5t-167.5 10.5t-167.5 -10.5t-118.5 -39.5t-77 -84.5t-24 -142.5q0 -70 17 -119.5
t46.5 -80.5t80 -48.5t106.5 -23.5t137 -6z" />
    <glyph glyph-name="oe" unicode="&#x153;" horiz-adv-x="1805" 
d="M1743 610h-434q-155 0 -231 -52.5t-85 -180.5h726v-70h-726q9 -129 85 -181.5t231 -52.5h434v-73h-434q-149 0 -236 45.5t-120 143.5q-35 -111 -138 -153.5t-287 -42.5q-119 0 -200.5 15.5t-144 54t-92 107.5t-29.5 172t29.5 172t92 107t144 53.5t200.5 15.5
q184 0 287 -42.5t138 -153.5q33 98 120 144t236 46h434v-74zM528 67q81 0 137 6t106.5 23t80 47.5t46.5 79.5t17 119t-17 119t-46.5 79.5t-80 47.5t-106.5 23t-137 6t-137 -6t-106.5 -23t-80 -47.5t-46.5 -79.5t-17 -119t17 -119t46.5 -79.5t80 -47.5t106.5 -23t137 -6z" />
    <glyph glyph-name="Ydieresis" unicode="&#x178;" horiz-adv-x="903" 
d="M366 893v-129h-77v129h77zM621 893v-129h-78v129h78zM9 684h113l243 -263q68 -73 86 -118q4 11 11 23l12 20t16.5 22t15 17.5t18.5 19.5l14 16l243 263h113l-312 -325q-92 -95 -92 -149v-210h-77v210q0 25 -19 57t-32.5 47.5l-40.5 44.5z" />
    <glyph glyph-name="florin" unicode="&#x192;" horiz-adv-x="676" 
d="M-118 -172v72q111 0 160.5 39t49.5 135v314q0 165 85.5 230.5t277.5 65.5h176v-74h-176q-161 0 -224 -48t-63 -174v-53h435v-67h-435v-193q0 -135 -70.5 -191t-215.5 -56z" />
    <glyph glyph-name="circumflex" unicode="&#x2c6;" horiz-adv-x="580" 
d="M90 751l161 176h88l161 -176h-75l-130 128l-130 -128h-75z" />
    <glyph glyph-name="tilde" unicode="&#x2dc;" horiz-adv-x="612" 
d="M417 809q65 0 80 93h53q-2 -21 -9 -43.5t-20.5 -50.5t-40.5 -46t-62 -18q-32 0 -63 15.5t-51.5 34t-48.5 34t-53 15.5q-66 0 -81 -93h-53q2 21 9 44t21 51t41 45.5t62 17.5q32 0 63 -15.5t51.5 -34t48.5 -34t53 -15.5z" />
    <glyph glyph-name="endash" unicode="&#x2013;" horiz-adv-x="851" 
d="M766 380v-68h-681v68h681z" />
    <glyph glyph-name="emdash" unicode="&#x2014;" horiz-adv-x="1274" 
d="M1189 380v-68h-1104v68h1104z" />
    <glyph glyph-name="quoteleft" unicode="&#x2018;" horiz-adv-x="246" 
d="M161 684v-280h-76v280h76z" />
    <glyph glyph-name="quoteright" unicode="&#x2019;" horiz-adv-x="246" 
d="M161 684v-280h-76v280h76z" />
    <glyph glyph-name="quotesinglbase" unicode="&#x201a;" horiz-adv-x="278" 
d="M196 133l-85 -240h-66l65 240h86z" />
    <glyph glyph-name="quotedblleft" unicode="&#x201c;" horiz-adv-x="456" 
d="M161 684v-280h-76v280h76zM371 684v-280h-75v280h75z" />
    <glyph glyph-name="quotedblright" unicode="&#x201d;" horiz-adv-x="456" 
d="M161 684v-280h-76v280h76zM371 684v-280h-75v280h75z" />
    <glyph glyph-name="quotedblbase" unicode="&#x201e;" horiz-adv-x="472" 
d="M390 133l-85 -240h-66l65 240h86zM196 133l-85 -240h-66l65 240h86z" />
    <glyph glyph-name="dagger" unicode="&#x2020;" horiz-adv-x="542" 
d="M38 431v60h200v193h65v-193h201v-60h-201v-495h-65v495h-200z" />
    <glyph glyph-name="daggerdbl" unicode="&#x2021;" horiz-adv-x="596" 
d="M65 431v60h200v193h65v-193h201v-60h-201v-243h201v-60h-201v-192h-65v192h-200v60h200v243h-200z" />
    <glyph glyph-name="bullet" unicode="&#x2022;" horiz-adv-x="403" 
d="M96 342q0 43 31 74t75 31t74.5 -30.5t30.5 -74.5t-31 -75t-74 -31q-44 0 -75 31t-31 75z" />
    <glyph glyph-name="ellipsis" unicode="&#x2026;" horiz-adv-x="1131" 
d="M172 130v-130h-87v130h87zM609 130v-130h-87v130h87zM1046 130v-130h-87v130h87z" />
    <glyph glyph-name="perthousand" unicode="&#x2030;" horiz-adv-x="1437" 
d="M742 338q101 0 150.5 -47.5t49.5 -126.5t-49.5 -126.5t-150.5 -47.5t-151 47.5t-50 126.5t50 126.5t151 47.5zM742 40q137 0 137 124t-137 124q-138 0 -138 -124t138 -124zM444 519q0 -79 -49.5 -126.5t-150.5 -47.5t-151 47.5t-50 126.5t50 127t151 48t150.5 -47.5
t49.5 -127.5zM106 519q0 -123 138 -123q137 0 137 123q0 124 -137 124q-138 0 -138 -124zM778 684h82l-652 -684h-82zM1197 338q101 0 151 -47.5t50 -126.5t-50 -126.5t-151 -47.5t-150.5 47.5t-49.5 126.5t49.5 126.5t150.5 47.5zM1197 40q138 0 138 124t-138 124
q-137 0 -137 -124t137 -124z" />
    <glyph glyph-name="guilsinglleft" unicode="&#x2039;" horiz-adv-x="527" 
d="M161 346l279 -150v-79l-403 229l403 230v-80z" />
    <glyph glyph-name="guilsinglright" unicode="&#x203a;" horiz-adv-x="527" 
d="M87 196l279 150l-279 150v80l403 -230l-403 -229v79z" />
    <glyph glyph-name="Euro" unicode="&#x20ac;" horiz-adv-x="1022" 
d="M775 455l-18 -46h-500q-3 -32 -3 -67q0 -37 3 -67h450l-18 -47h-424q17 -82 73 -119t164 -37h459v-72h-459q-146 0 -221 55t-95 173h-132l18 47h108q-3 30 -3 67q0 36 3 67h-126l18 46h114q21 119 96.5 174t219.5 55h459v-72h-459q-108 0 -164 -37.5t-73 -119.5h510z" />
    <glyph glyph-name="trademark" unicode="&#x2122;" horiz-adv-x="1056" 
d="M279 641v-287h-47v287h-167v43h381v-43h-167zM968 684v-330h-46v270l-165 -196h-32l-164 196v-270h-44v330h52l173 -207l173 207h53z" />
    <glyph glyph-name="minus" unicode="&#x2212;" horiz-adv-x="787" 
d="M702 379v-66h-617v66h617z" />
    </font>
</defs>
</svg>
