<?xml version="1.0" encoding="iso-8859-1"?>
<!-- Generator: Adobe Illustrator 16.0.0, SVG Export Plug-In . SVG Version: 6.00 Build 0)  -->
<!DOCTYPE svg PUBLIC "-//W3C//DTD SVG 1.1//EN" "http://www.w3.org/Graphics/SVG/1.1/DTD/svg11.dtd">
<svg version="1.1" xmlns="http://www.w3.org/2000/svg" xmlns:xlink="http://www.w3.org/1999/xlink" x="0px" y="0px"
	 width="38.544px" height="38.543px" viewBox="0 0 38.544 38.543" style="enable-background:new 0 0 38.544 38.543;"
	 xml:space="preserve">
<g id="Layer_10">
	<g>
		<path style="fill:#E00822;" d="M38.544,19.271c0,10.645-8.628,19.271-19.271,19.271C8.628,38.543,0,29.916,0,19.271
			C0,8.629,8.63,0,19.272,0C29.916,0,38.544,8.629,38.544,19.271"/>
		<path style="fill:#FFFFFF;" d="M20.214,19.271l8.557-8.555c0.26-0.262,0.26-0.684,0-0.943c-0.26-0.258-0.683-0.26-0.942,0
			l-8.556,8.557l-8.557-8.557c-0.261-0.26-0.683-0.26-0.941,0c-0.13,0.131-0.195,0.303-0.195,0.473s0.065,0.342,0.195,0.471
			l8.556,8.557L9.774,27.83c-0.26,0.26-0.26,0.682,0,0.941c0.13,0.131,0.301,0.195,0.471,0.195c0.171,0,0.341-0.064,0.472-0.195
			l8.557-8.557l8.556,8.557c0.261,0.26,0.684,0.26,0.942,0s0.26-0.682,0-0.941L20.214,19.271z"/>
	</g>
</g>
<g id="Layer_1">
</g>
</svg>
