<?xml version="1.0" encoding="iso-8859-1"?>
<!-- Generator: Adobe Illustrator 16.0.0, SVG Export Plug-In . SVG Version: 6.00 Build 0)  -->
<!DOCTYPE svg PUBLIC "-//W3C//DTD SVG 1.1//EN" "http://www.w3.org/Graphics/SVG/1.1/DTD/svg11.dtd">
<svg version="1.1" xmlns="http://www.w3.org/2000/svg" xmlns:xlink="http://www.w3.org/1999/xlink" x="0px" y="0px"
	 width="29.203px" height="29.204px" viewBox="0 0 29.203 29.204" style="enable-background:new 0 0 29.203 29.204;"
	 xml:space="preserve">
<g id="Layer_17">
	<g>
		<path style="fill:#231F20;" d="M15.572,14.602l13.43-13.429c0.269-0.27,0.269-0.703,0-0.971c-0.269-0.27-0.702-0.27-0.971,0
			l-13.429,13.43L1.172,0.202c-0.269-0.27-0.702-0.27-0.971,0c-0.268,0.268-0.268,0.701,0,0.971l13.43,13.429L0.201,28.03
			c-0.268,0.27-0.268,0.701,0,0.971c0.135,0.135,0.31,0.203,0.485,0.203c0.175,0,0.351-0.068,0.484-0.203l13.431-13.43l13.429,13.43
			c0.135,0.135,0.31,0.203,0.484,0.203c0.176,0,0.352-0.068,0.485-0.203c0.269-0.27,0.269-0.701,0-0.971L15.572,14.602z"/>
	</g>
</g>
<g id="Layer_1">
</g>
</svg>
